<svg width="450" height="450" viewBox="0 0 450 450" fill="none" xmlns="http://www.w3.org/2000/svg">
<g clip-path="url(#clip0_1_2)">
<g filter="url(#filter0_df_1_2)">
<mask id="path-1-outside-1_1_2" maskUnits="userSpaceOnUse" x="13" y="12" width="420" height="425" fill="black">
<rect fill="white" x="13" y="12" width="420" height="425"/>
<path d="M417.215 280.257C407.203 315.086 387.916 346.539 361.415 371.257C334.914 395.974 302.195 413.027 266.755 420.593C231.314 428.159 194.484 425.953 160.2 414.211C125.916 402.47 95.4664 381.634 72.1049 353.931C48.7434 326.227 33.348 292.696 27.564 256.922C21.7799 221.148 25.8244 184.474 39.2655 150.82C52.7065 117.166 75.0388 87.7961 103.876 65.8491C132.713 43.9022 166.972 30.2027 202.991 26.2147L225 225L417.215 280.257Z"/>
</mask>
<path d="M417.215 280.257C407.203 315.086 387.916 346.539 361.415 371.257C334.914 395.974 302.195 413.027 266.755 420.593C231.314 428.159 194.484 425.953 160.2 414.211C125.916 402.47 95.4664 381.634 72.1049 353.931C48.7434 326.227 33.348 292.696 27.564 256.922C21.7799 221.148 25.8244 184.474 39.2655 150.82C52.7065 117.166 75.0388 87.7961 103.876 65.8491C132.713 43.9022 166.972 30.2027 202.991 26.2147L225 225L417.215 280.257Z" fill="#000900"/>
<path d="M417.215 280.257C407.203 315.086 387.916 346.539 361.415 371.257C334.914 395.974 302.195 413.027 266.755 420.593C231.314 428.159 194.484 425.953 160.2 414.211C125.916 402.47 95.4664 381.634 72.1049 353.931C48.7434 326.227 33.348 292.696 27.564 256.922C21.7799 221.148 25.8244 184.474 39.2655 150.82C52.7065 117.166 75.0388 87.7961 103.876 65.8491C132.713 43.9022 166.972 30.2027 202.991 26.2147L225 225L417.215 280.257Z" stroke="#62FFB1" stroke-width="24" mask="url(#path-1-outside-1_1_2)"/>
</g>
<circle cx="225" cy="225" r="201.5" fill="#000900" stroke="#62FFB1" stroke-width="3"/>
<mask id="path-3-outside-2_1_2" maskUnits="userSpaceOnUse" x="56" y="101" width="344" height="240" fill="black">
<rect fill="white" x="56" y="101" width="344" height="240"/>
<path d="M162.943 110.818H189.364V266.784C189.364 280.705 186.807 292.53 181.693 302.26C176.58 311.99 169.371 319.376 160.067 324.419C150.763 329.462 139.79 331.983 127.148 331.983C115.216 331.983 104.598 329.817 95.294 325.484C85.9901 321.081 78.6747 314.831 73.348 306.734C68.0213 298.638 65.358 289.014 65.358 277.864H91.3523C91.3523 284.043 92.8793 289.44 95.9332 294.057C99.0582 298.602 103.32 302.153 108.717 304.71C114.115 307.267 120.259 308.545 127.148 308.545C134.747 308.545 141.21 306.947 146.537 303.751C151.864 300.555 155.912 295.868 158.682 289.689C161.523 283.439 162.943 275.804 162.943 266.784V110.818ZM242.311 329V110.818H316.033C333.149 110.818 347.141 113.908 358.007 120.087C368.945 126.195 377.041 134.469 382.297 144.909C387.553 155.349 390.18 166.997 390.18 179.852C390.18 192.707 387.553 204.391 382.297 214.902C377.112 225.413 369.087 233.794 358.22 240.044C347.354 246.223 333.433 249.312 316.459 249.312H263.618V225.875H315.607C327.325 225.875 336.736 223.851 343.838 219.803C350.94 215.754 356.089 210.286 359.286 203.396C362.553 196.436 364.186 188.588 364.186 179.852C364.186 171.116 362.553 163.304 359.286 156.415C356.089 149.526 350.905 144.128 343.732 140.222C336.558 136.244 327.041 134.256 315.18 134.256H268.732V329H242.311Z"/>
</mask>
<path d="M162.943 110.818H189.364V266.784C189.364 280.705 186.807 292.53 181.693 302.26C176.58 311.99 169.371 319.376 160.067 324.419C150.763 329.462 139.79 331.983 127.148 331.983C115.216 331.983 104.598 329.817 95.294 325.484C85.9901 321.081 78.6747 314.831 73.348 306.734C68.0213 298.638 65.358 289.014 65.358 277.864H91.3523C91.3523 284.043 92.8793 289.44 95.9332 294.057C99.0582 298.602 103.32 302.153 108.717 304.71C114.115 307.267 120.259 308.545 127.148 308.545C134.747 308.545 141.21 306.947 146.537 303.751C151.864 300.555 155.912 295.868 158.682 289.689C161.523 283.439 162.943 275.804 162.943 266.784V110.818ZM242.311 329V110.818H316.033C333.149 110.818 347.141 113.908 358.007 120.087C368.945 126.195 377.041 134.469 382.297 144.909C387.553 155.349 390.18 166.997 390.18 179.852C390.18 192.707 387.553 204.391 382.297 214.902C377.112 225.413 369.087 233.794 358.22 240.044C347.354 246.223 333.433 249.312 316.459 249.312H263.618V225.875H315.607C327.325 225.875 336.736 223.851 343.838 219.803C350.94 215.754 356.089 210.286 359.286 203.396C362.553 196.436 364.186 188.588 364.186 179.852C364.186 171.116 362.553 163.304 359.286 156.415C356.089 149.526 350.905 144.128 343.732 140.222C336.558 136.244 327.041 134.256 315.18 134.256H268.732V329H242.311Z" fill="#62FFB1"/>
<path d="M162.943 110.818V101.818H153.943V110.818H162.943ZM189.364 110.818H198.364V101.818H189.364V110.818ZM181.693 302.26L189.66 306.447L189.66 306.447L181.693 302.26ZM160.067 324.419L164.355 332.332L164.355 332.332L160.067 324.419ZM95.294 325.484L91.4439 333.619L91.4694 333.631L91.4949 333.643L95.294 325.484ZM73.348 306.734L65.8293 311.681L65.8293 311.681L73.348 306.734ZM65.358 277.864V268.864H56.358V277.864H65.358ZM91.3523 277.864H100.352V268.864H91.3523V277.864ZM95.9332 294.057L88.4271 299.022L88.4714 299.089L88.5169 299.156L95.9332 294.057ZM108.717 304.71L112.57 296.577L112.57 296.577L108.717 304.71ZM146.537 303.751L141.906 296.034L141.906 296.034L146.537 303.751ZM158.682 289.689L150.489 285.965L150.479 285.986L150.469 286.007L158.682 289.689ZM162.943 110.818V119.818H189.364V110.818V101.818H162.943V110.818ZM189.364 110.818H180.364V266.784H189.364H198.364V110.818H189.364ZM189.364 266.784H180.364C180.364 279.625 178.004 289.933 173.726 298.073L181.693 302.26L189.66 306.447C195.609 295.127 198.364 281.784 198.364 266.784H189.364ZM181.693 302.26L173.726 298.073C169.409 306.289 163.451 312.348 155.778 316.506L160.067 324.419L164.355 332.332C175.29 326.405 183.75 317.691 189.66 306.447L181.693 302.26ZM160.067 324.419L155.778 316.506C148.025 320.709 138.583 322.983 127.148 322.983V331.983V340.983C140.997 340.983 153.501 338.215 164.355 332.332L160.067 324.419ZM127.148 331.983V322.983C116.316 322.983 107.029 321.021 99.0932 317.326L95.294 325.484L91.4949 333.643C102.167 338.613 114.116 340.983 127.148 340.983V331.983ZM95.294 325.484L99.1441 317.349C91.2358 313.607 85.2292 308.419 80.8668 301.788L73.348 306.734L65.8293 311.681C72.1203 321.243 80.7443 328.555 91.4439 333.619L95.294 325.484ZM73.348 306.734L80.8668 301.788C76.6456 295.372 74.358 287.528 74.358 277.864H65.358H56.358C56.358 290.501 59.397 301.904 65.8293 311.681L73.348 306.734ZM65.358 277.864V286.864H91.3523V277.864V268.864H65.358V277.864ZM91.3523 277.864H82.3523C82.3523 285.596 84.2876 292.765 88.4271 299.022L95.9332 294.057L103.439 289.091C101.471 286.116 100.352 282.49 100.352 277.864H91.3523ZM95.9332 294.057L88.5169 299.156C92.6151 305.117 98.1547 309.666 104.865 312.844L108.717 304.71L112.57 296.577C108.485 294.641 105.501 292.088 103.35 288.958L95.9332 294.057ZM108.717 304.71L104.865 312.844C111.638 316.052 119.13 317.545 127.148 317.545V308.545V299.545C121.387 299.545 116.592 298.482 112.57 296.577L108.717 304.71ZM127.148 308.545V317.545C136.015 317.545 144.16 315.673 151.167 311.469L146.537 303.751L141.906 296.034C138.261 298.222 133.48 299.545 127.148 299.545V308.545ZM146.537 303.751L151.167 311.469C158.216 307.24 163.443 301.071 166.894 293.37L158.682 289.689L150.469 286.007C148.381 290.665 145.512 293.871 141.906 296.034L146.537 303.751ZM158.682 289.689L166.875 293.413C170.387 285.688 171.943 276.704 171.943 266.784H162.943H153.943C153.943 274.904 152.659 281.19 150.489 285.965L158.682 289.689ZM162.943 266.784H171.943V110.818H162.943H153.943V266.784H162.943ZM242.311 329H233.311V338H242.311V329ZM242.311 110.818V101.818H233.311V110.818H242.311ZM358.007 120.087L353.558 127.91L353.589 127.927L353.619 127.944L358.007 120.087ZM382.297 144.909L374.258 148.956L374.258 148.956L382.297 144.909ZM382.297 214.902L374.247 210.877L374.236 210.899L374.225 210.921L382.297 214.902ZM358.22 240.044L362.669 247.868L362.688 247.857L362.707 247.846L358.22 240.044ZM263.618 249.312H254.618V258.312H263.618V249.312ZM263.618 225.875V216.875H254.618V225.875H263.618ZM343.838 219.803L339.381 211.984L339.381 211.984L343.838 219.803ZM359.286 203.396L351.138 199.572L351.13 199.59L351.121 199.609L359.286 203.396ZM359.286 156.415L351.121 160.202L351.137 160.237L351.154 160.271L359.286 156.415ZM343.732 140.222L339.367 148.093L339.397 148.109L339.427 148.126L343.732 140.222ZM268.732 134.256V125.256H259.732V134.256H268.732ZM268.732 329V338H277.732V329H268.732ZM242.311 329H251.311V110.818H242.311H233.311V329H242.311ZM242.311 110.818V119.818H316.033V110.818V101.818H242.311V110.818ZM316.033 110.818V119.818C332.14 119.818 344.458 122.735 353.558 127.91L358.007 120.087L362.456 112.263C349.824 105.08 334.158 101.818 316.033 101.818V110.818ZM358.007 120.087L353.619 127.944C363.105 133.242 369.87 140.239 374.258 148.956L382.297 144.909L390.336 140.862C384.212 128.698 374.785 119.148 362.395 112.229L358.007 120.087ZM382.297 144.909L374.258 148.956C378.821 158.019 381.18 168.26 381.18 179.852H390.18H399.18C399.18 165.734 396.285 152.679 390.336 140.862L382.297 144.909ZM390.18 179.852H381.18C381.18 191.444 378.821 201.729 374.247 210.877L382.297 214.902L390.347 218.927C396.284 207.052 399.18 193.971 399.18 179.852H390.18ZM382.297 214.902L374.225 210.921C369.886 219.718 363.165 226.817 353.733 232.242L358.22 240.044L362.707 247.846C375.008 240.771 384.338 231.108 390.368 218.883L382.297 214.902ZM358.22 240.044L353.771 232.22C344.661 237.401 332.409 240.312 316.459 240.312V249.312V258.312C334.457 258.312 350.047 255.045 362.669 247.868L358.22 240.044ZM316.459 249.312V240.312H263.618V249.312V258.312H316.459V249.312ZM263.618 249.312H272.618V225.875H263.618H254.618V249.312H263.618ZM263.618 225.875V234.875H315.607V225.875V216.875H263.618V225.875ZM315.607 225.875V234.875C328.251 234.875 339.372 232.708 348.295 227.622L343.838 219.803L339.381 211.984C334.1 214.994 326.4 216.875 315.607 216.875V225.875ZM343.838 219.803L348.295 227.622C356.891 222.722 363.406 215.901 367.45 207.184L359.286 203.396L351.121 199.609C348.773 204.67 344.99 208.787 339.381 211.984L343.838 219.803ZM359.286 203.396L367.433 207.22C371.333 198.91 373.186 189.73 373.186 179.852H364.186H355.186C355.186 187.447 353.772 193.962 351.138 199.572L359.286 203.396ZM364.186 179.852H373.186C373.186 169.977 371.334 160.817 367.417 152.558L359.286 156.415L351.154 160.271C353.771 165.791 355.186 172.256 355.186 179.852H364.186ZM359.286 156.415L367.45 152.627C363.379 143.852 356.768 137.073 348.036 132.318L343.732 140.222L339.427 148.126C345.042 151.183 348.8 155.199 351.121 160.202L359.286 156.415ZM343.732 140.222L348.096 132.351C339.123 127.375 327.931 125.256 315.18 125.256V134.256V143.256C326.152 143.256 333.994 145.113 339.367 148.093L343.732 140.222ZM315.18 134.256V125.256H268.732V134.256V143.256H315.18V134.256ZM268.732 134.256H259.732V329H268.732H277.732V134.256H268.732ZM268.732 329V320H242.311V329V338H268.732V329Z" fill="#032509" mask="url(#path-3-outside-2_1_2)"/>
</g>
<defs>
<filter id="filter0_df_1_2" x="-0.600061" y="2.16704" width="446.263" height="452.433" filterUnits="userSpaceOnUse" color-interpolation-filters="sRGB">
<feFlood flood-opacity="0" result="BackgroundImageFix"/>
<feColorMatrix in="SourceAlpha" type="matrix" values="0 0 0 0 0 0 0 0 0 0 0 0 0 0 0 0 0 0 127 0" result="hardAlpha"/>
<feMorphology radius="8" operator="dilate" in="SourceAlpha" result="effect1_dropShadow_1_2"/>
<feOffset dy="4"/>
<feGaussianBlur stdDeviation="2.8"/>
<feComposite in2="hardAlpha" operator="out"/>
<feColorMatrix type="matrix" values="0 0 0 0 0.384314 0 0 0 0 1 0 0 0 0 0.694118 0 0 0 0.25 0"/>
<feBlend mode="normal" in2="BackgroundImageFix" result="effect1_dropShadow_1_2"/>
<feBlend mode="normal" in="SourceGraphic" in2="effect1_dropShadow_1_2" result="shape"/>
<feGaussianBlur stdDeviation="5.4" result="effect2_foregroundBlur_1_2"/>
</filter>
<clipPath id="clip0_1_2">
<rect width="450" height="450" fill="white"/>
</clipPath>
</defs>
</svg>
